<?xml version="1.0" encoding="UTF-8"?>
<svg width="202px" height="48px" viewBox="0 0 202 48" version="1.1" xmlns="http://www.w3.org/2000/svg" xmlns:xlink="http://www.w3.org/1999/xlink">
    <!-- Generator: Sketch 58 (84663) - https://sketch.com -->
    <title>4 - Footer - Logo</title>
    <desc>Created with Sketch.</desc>
    <defs>
        <polygon id="path-1" points="0 48.5342 201.576 48.5342 201.576 1.0002 0 1.0002"></polygon>
    </defs>
    <g id="Page-1" stroke="none" stroke-width="1" fill="none" fill-rule="evenodd">
        <g id="HOME" transform="translate(-74.000000, -2239.000000)">
            <g id="4---FOOTER" transform="translate(0.000000, 2185.000000)">
                <g id="4---Footer---Logo" transform="translate(74.000000, 53.000000)">
                    <g id="Group-3" transform="translate(0.000000, 0.534200)" fill="#2F2619">
                        <path d="M24.3124,0.4662 C10.9064,0.4662 0.0004,11.3722 0.0004,24.7782 C0.0004,34.7752 5.9944,43.6362 15.2724,47.3552 L16.2464,47.5922 C17.8954,48.1172 19.7214,47.8592 21.0324,46.9142 C22.3584,45.9572 23.0884,44.3732 23.0884,42.4542 L23.0884,28.5912 L23.0874,28.5912 C23.0874,25.8842 20.6674,23.9982 18.4954,23.9982 L15.7124,23.9982 L15.7124,26.6972 L18.4954,26.6972 C19.2664,26.6972 20.3884,27.4362 20.3884,28.5912 L20.3894,28.5912 L20.3894,30.2832 C19.7794,29.9882 19.1294,29.8122 18.4954,29.8122 L17.5884,29.8122 L17.5884,32.5112 L18.4954,32.5112 C19.2664,32.5112 20.3884,33.2492 20.3884,34.4042 L20.3894,34.4042 L20.3894,42.4542 C20.3894,43.5122 20.0744,44.2762 19.4524,44.7242 C18.8254,45.1772 17.8744,45.2872 17.0304,45.0082 L16.1784,44.8092 C7.9864,41.4802 2.6994,33.6292 2.6994,24.7782 C2.6994,12.8622 12.3954,3.1652 24.3124,3.1652 C36.2294,3.1652 45.9254,12.8622 45.9254,24.7782 C45.9254,33.7392 40.2904,41.8742 31.9614,45.0012 L31.5164,45.1452 C30.7254,45.4212 29.9384,45.3222 29.2994,44.8682 C28.5794,44.3582 28.1634,43.4772 28.1604,42.4502 C28.1554,40.9422 28.1424,37.3582 28.1304,34.1892 L28.1834,34.1892 C28.1834,33.4172 28.9214,32.2952 30.0774,32.2952 L31.2424,32.2952 L31.2424,29.5962 L30.0774,29.5962 C29.3564,29.5962 28.6994,29.7772 28.1154,30.0702 C28.1124,29.3742 28.1104,28.8592 28.1094,28.6042 L28.1274,28.6042 C28.1274,27.4482 29.2494,26.7102 30.0214,26.7102 L33.0874,26.7102 L33.0874,24.0112 L30.0214,24.0112 C27.8974,24.0112 25.5524,25.8202 25.4484,28.4302 L25.4094,28.4302 C25.4094,28.4302 25.4524,39.4842 25.4604,42.4582 C25.4654,44.3682 26.2964,46.0502 27.7384,47.0712 C28.6064,47.6872 29.6174,48.0002 30.6494,48.0002 C31.2254,48.0002 31.8074,47.9032 32.3754,47.7042 L32.8514,47.5492 C42.2864,44.0092 48.6244,34.8592 48.6244,24.7782 C48.6244,11.3722 37.7184,0.4662 24.3124,0.4662" id="Fill-1"></path>
                    </g>
                    <path d="M24.4022,8.2103 C23.8522,8.2103 22.1822,10.9813 22.1822,13.1993 C22.1822,15.4183 23.1752,16.2443 24.4022,16.2443 C25.6282,16.2443 26.6222,15.4183 26.6222,13.1993 C26.6222,10.9813 24.9132,8.2103 24.4022,8.2103" id="Fill-4" fill="#2F2619"></path>
                    <path d="M19.4638,17.5677 C20.5258,16.9547 20.9738,15.7427 19.8638,13.8217 C18.7548,11.8997 15.8888,10.3537 15.4458,10.6097 C14.9698,10.8837 14.9098,14.1197 16.0188,16.0417 C17.1278,17.9627 18.4018,18.1797 19.4638,17.5677" id="Fill-6" fill="#2F2619"></path>
                    <path d="M14.3222,17.7386 C12.4002,16.6296 9.1452,16.7226 8.8902,17.1656 C8.6152,17.6416 10.1802,20.4736 12.1012,21.5836 C14.0232,22.6926 15.2352,22.2446 15.8482,21.1826 C16.4612,20.1216 16.2432,18.8466 14.3222,17.7386" id="Fill-8" fill="#2F2619"></path>
                    <path d="M6.4911,26.1214 C6.4911,26.6714 9.2621,28.3414 11.4801,28.3414 C13.6991,28.3414 14.5251,27.3474 14.5251,26.1214 C14.5251,24.8944 13.6991,23.9014 11.4801,23.9014 C9.2621,23.9014 6.4911,25.6104 6.4911,26.1214" id="Fill-10" fill="#2F2619"></path>
                    <path d="M14.3222,34.5043 C16.2432,33.3953 16.4612,32.1213 15.8482,31.0603 C15.2352,29.9983 14.0232,29.5503 12.1012,30.6593 C10.1802,31.7693 8.6352,34.6353 8.8902,35.0773 C9.1652,35.5533 12.4002,35.6133 14.3222,34.5043" id="Fill-12" fill="#2F2619"></path>
                    <path d="M32.9559,31.0599 C32.3429,32.1219 32.5609,33.3949 34.4819,34.5039 C36.4029,35.6139 39.6579,35.5189 39.9139,35.0779 C40.1879,34.6009 38.6239,31.7689 36.7019,30.6599 C34.7809,29.5499 33.5689,29.9979 32.9559,31.0599" id="Fill-14" fill="#2F2619"></path>
                    <path d="M37.3231,28.3412 C39.5421,28.3412 42.3131,26.6322 42.3131,26.1212 C42.3131,25.5712 39.5421,23.9022 37.3231,23.9022 C35.1041,23.9022 34.2791,24.8952 34.2791,26.1212 C34.2791,27.3472 35.1041,28.3412 37.3231,28.3412" id="Fill-16" fill="#2F2619"></path>
                    <path d="M32.9559,21.183 C33.5689,22.245 34.7809,22.693 36.7019,21.583 C38.6239,20.474 40.1689,17.608 39.9139,17.165 C39.6389,16.689 36.4029,16.629 34.4819,17.739 C32.5609,18.847 32.3429,20.121 32.9559,21.183" id="Fill-18" fill="#2F2619"></path>
                    <path d="M28.9403,13.8216 C27.8313,15.7426 28.2793,16.9546 29.3403,17.5676 C30.4023,18.1796 31.6753,17.9626 32.7853,16.0416 C33.8943,14.1196 33.7993,10.8646 33.3573,10.6096 C32.8813,10.3346 30.0493,11.8996 28.9403,13.8216" id="Fill-20" fill="#2F2619"></path>
                    <path d="M24.4022,22.2269 C24.1142,22.2269 23.2422,23.6759 23.2422,24.8349 C23.2422,25.9959 23.7612,26.4269 24.4022,26.4269 C25.0432,26.4269 25.5622,25.9959 25.5622,24.8349 C25.5622,23.6759 24.6692,22.2269 24.4022,22.2269" id="Fill-22" fill="#2F2619"></path>
                    <path d="M25.7821,21.0199 C26.4161,21.1919 27.0441,20.9039 27.3541,19.7579 C27.6641,18.6129 27.1691,16.9429 26.9051,16.8719 C26.6211,16.7939 25.3711,17.9929 25.0611,19.1379 C24.7511,20.2839 25.1491,20.8489 25.7821,21.0199" id="Fill-24" fill="#2F2619"></path>
                    <path d="M21.4813,19.7435 C21.7863,20.8905 22.4133,21.1815 23.0463,21.0135 C23.6803,20.8455 24.0823,20.2815 23.7773,19.1355 C23.4723,17.9875 22.2093,16.7885 21.9443,16.8585 C21.6603,16.9335 21.1763,18.5975 21.4813,19.7435" id="Fill-26" fill="#2F2619"></path>
                    <path d="M20.6747,22.3754 C21.1397,21.9124 21.2047,21.2254 20.3677,20.3834 C19.5297,19.5414 17.8357,19.1364 17.6427,19.3284 C17.4337,19.5364 17.8467,21.2174 18.6837,22.0594 C19.5217,22.8994 20.2097,22.8384 20.6747,22.3754" id="Fill-28" fill="#2F2619"></path>
                    <path d="M28.4647,20.4027 C27.6227,21.2407 27.6857,21.9287 28.1487,22.3937 C28.6107,22.8587 29.2987,22.9237 30.1407,22.0877 C30.9817,21.2497 31.3877,19.5547 31.1947,19.3617 C30.9867,19.1537 29.3067,19.5657 28.4647,20.4027" id="Fill-30" fill="#2F2619"></path>
                    <path d="M29.6278,6.64 C29.3438,6.563 28.0938,7.761 27.7838,8.907 C27.4738,10.053 27.8718,10.618 28.5048,10.789 C29.1388,10.96 29.7668,10.673 30.0768,9.528 C30.3868,8.381 29.8918,6.711 29.6278,6.64" id="Fill-32" fill="#2F2619"></path>
                    <path d="M21.1327,8.9134 C20.8277,7.7674 19.5637,6.5674 19.2997,6.6384 C19.0157,6.7134 18.5317,8.3754 18.8357,9.5224 C19.1407,10.6704 19.7677,10.9604 20.4027,10.7924 C21.0357,10.6244 21.4367,10.0604 21.1327,8.9134" id="Fill-34" fill="#2F2619"></path>
                    <path d="M12.9393,14.6664 C13.4043,14.2044 13.4693,13.5164 12.6323,12.6744 C11.7953,11.8334 10.1013,11.4274 9.9073,11.6194 C9.6993,11.8274 10.1113,13.5084 10.9493,14.3504 C11.7863,15.1914 12.4743,15.1294 12.9393,14.6664" id="Fill-36" fill="#2F2619"></path>
                    <path d="M37.5663,14.8929 C38.4083,14.0559 38.8143,12.3619 38.6213,12.1679 C38.4143,11.9589 36.7323,12.3719 35.8903,13.2089 C35.0493,14.0459 35.1113,14.7349 35.5743,15.2009 C36.0373,15.6649 36.7253,15.7309 37.5663,14.8929" id="Fill-38" fill="#2F2619"></path>
                    <path d="M43.3378005,21.8685 C43.3388,21.5735 41.8578,20.6775 40.6708,20.6744873 C39.4838,20.6715 39.0408,21.2015 39.0387983,21.8575 C39.0378,22.5145 39.4778,23.0465 40.6648,23.0495074 C41.8518,23.0525 43.3368,22.1415 43.3378005,21.8685" id="Fill-40" fill="#2F2619"></path>
                    <path d="M42.7743,31.2181 C42.8783,30.9431 41.8023,29.5851 40.6913,29.1681 C39.5803,28.7511 38.9803,29.0941 38.7503,29.7081 C38.5193,30.3221 38.7463,30.9751 39.8573,31.3921 C40.9683,31.8091 42.6783,31.4741 42.7743,31.2181" id="Fill-42" fill="#2F2619"></path>
                    <path d="M8.6649,31.392 C9.7759,30.975 10.0029,30.323 9.7719,29.708 C9.5429,29.094 8.9419,28.751 7.8309,29.168 C6.7199,29.585 5.6439,30.943 5.7479,31.218 C5.8449,31.474 7.5539,31.809 8.6649,31.392" id="Fill-44" fill="#2F2619"></path>
                    <path d="M7.5702,20.6741926 C6.3832,20.6712 4.8982,21.5812 4.89719949,21.8552 C4.8962,22.1502 6.3782,23.0462 7.5642,23.0492127 C8.7512,23.0522 9.1942,22.5222 9.1962017,21.8652 C9.1972,21.2092 8.7572,20.6772 7.5702,20.6741926" id="Fill-46" fill="#2F2619"></path>
                    <mask id="mask-2" fill="white">
                        <use xlink:href="#path-1"></use>
                    </mask>
                    <g id="Clip-49"></g>
                    <polygon id="Fill-48" fill="#2F2619" mask="url(#mask-2)" points="70.961 37.3452 74.751 37.3452 74.751 11.5152 70.961 11.5152"></polygon>
                    <polygon id="Fill-50" fill="#2F2619" mask="url(#mask-2)" points="97.9003 30.4945 82.9793 11.5155 79.6213 11.5155 79.6213 37.3455 83.3393 37.3455 83.3393 17.9015 98.6493 37.3455 101.6183 37.3455 101.6183 11.5155 97.9003 11.5155"></polygon>
                    <polygon id="Fill-51" fill="#2F2619" mask="url(#mask-2)" points="123.3847 22.5531 110.0317 22.5531 110.0317 11.5151 106.2417 11.5151 106.2417 37.3451 110.0317 37.3451 110.0317 26.1641 123.3847 26.1641 123.3847 37.3451 127.1747 37.3451 127.1747 11.5151 123.3847 11.5151"></polygon>
                    <path d="M163.3847,15.0912 L169.1737,15.0912 C173.1027,15.0912 175.3547,16.8912 175.3547,20.0282 C175.3547,23.0712 172.8727,25.0372 169.0317,25.0372 L163.3847,25.0372 L163.3847,15.0912 Z M169.3877,11.5152 L159.5947,11.5152 L159.5947,37.3452 L163.3847,37.3452 L163.3847,28.5782 L168.9257,28.5782 C175.0587,28.5782 179.1787,25.0992 179.1787,19.9222 C179.1787,14.8152 175.3347,11.5152 169.3877,11.5152 L169.3877,11.5152 Z" id="Fill-52" fill="#2F2619" mask="url(#mask-2)"></path>
                    <path d="M185.7821,15.0912 L191.5711,15.0912 C195.5001,15.0912 197.7521,16.8912 197.7521,20.0282 C197.7521,23.0712 195.2701,25.0372 191.4291,25.0372 L185.7821,25.0372 L185.7821,15.0912 Z M191.7851,11.5152 L181.9921,11.5152 L181.9921,37.3452 L185.7821,37.3452 L185.7821,28.5782 L191.3231,28.5782 C197.4551,28.5782 201.5761,25.0992 201.5761,19.9222 C201.5761,14.8152 197.7321,11.5152 191.7851,11.5152 L191.7851,11.5152 Z" id="Fill-53" fill="#2F2619" mask="url(#mask-2)"></path>
                    <path d="M156.3134,24.3939 C156.3134,16.8079 150.6694,11.0879 143.1854,11.0879 C135.7854,11.0879 129.9874,16.9639 129.9874,24.4649 C129.9874,31.3789 134.6824,36.7289 141.1804,37.6239 L141.1804,33.9819 C136.9074,33.0669 133.8824,29.2509 133.8824,24.3939 C133.8824,18.8469 137.8514,14.6649 143.1154,14.6649 C148.4184,14.6649 152.4174,18.8779 152.4174,24.4649 C152.4174,29.3079 149.3924,33.1099 145.1214,33.9979 L145.1214,37.6079 C151.5344,36.6529 156.3134,31.2009 156.3134,24.3939 L263.785484,133.323178" id="Fill-54" fill="#2F2619" mask="url(#mask-2)"></path>
                </g>
            </g>
        </g>
    </g>
</svg>